<svg xmlns="http://www.w3.org/2000/svg" viewBox="0 0 256 256" fill="none" shape-rendering="auto" width="512" height="512"><desc>"Croodles - Doodle your face" by "vijay verma", licensed under "CC BY 4.0". / Remix of the original. - Created with dicebear.com</desc><metadata xmlns:dc="http://purl.org/dc/elements/1.1/" xmlns:cc="http://creativecommons.org/ns#" xmlns:rdf="http://www.w3.org/1999/02/22-rdf-syntax-ns#"><rdf:RDF><cc:Work><dc:title>Croodles - Doodle your face</dc:title><dc:creator><cc:Agent rdf:about="https://vijayverma.co/"><dc:title>vijay verma</dc:title></cc:Agent></dc:creator><dc:source>https://www.figma.com/community/file/966199982810283152</dc:source><cc:license rdf:resource="https://creativecommons.org/licenses/by/4.0/" /></cc:Work></rdf:RDF></metadata><mask id="viewboxMask"><rect width="256" height="256" rx="0" ry="0" x="0" y="0" fill="#fff" /></mask><g mask="url(#viewboxMask)"><rect fill="#d1d4f9" width="256" height="256" x="0" y="0" /><path d="m176 91.2.3.4c.3.1.7.4.9.7a81 81 0 0 1 8 27.7c4.7-1.6 11.8 2 11.8 10 0 4-.3 6.7-1 9-.6 2.3-1.6 4-3 5.8a9.4 9.4 0 0 1-7.7 3.3 71.7 71.7 0 0 1-26.1 49.2 51.6 51.6 0 0 1-37.2 11.4 43.6 43.6 0 0 1-30.2-18 114.1 114.1 0 0 1-19.5-42.3c-1.5.2-3.8 0-6-1.2-3-1.5-5.7-4.7-6.8-10.6-1-5.3-.4-10 1.7-13a8 8 0 0 1 4.3-3.1c1.5-.5 3.2-.5 5 0A42.2 42.2 0 0 1 96 84.3a90.3 90.3 0 0 1 26.3-7.5c19.1-2.5 40.5.5 53.7 14.4Z" fill="#ffffff"/><g stroke="#000" stroke-width="3" stroke-linecap="round" stroke-linejoin="round"><path d="M81.3 95c-17 17-15 61 11 96.5 15 20.5 42.2 25.1 66.7 6.5 34.5-26.2 30.5-83 18-106"/><path d="M186.4 121.4c3.6-1.9 10.7.8 10.7 8.7 0 7.8-1.1 10.8-3.7 14.2-2 2.6-5.6 3.2-8 2.7M69.7 121.9c-7.7-2.4-12.2 4-10.2 14.6 2.1 11.4 10.2 11.3 12.5 10.8"/></g><g transform="translate(112 123)"><path d="M13.7 15c3.9 2.1 11 11.9 10.2 17.3-.5 3.6-8.5 2.5-12.9 1.7" stroke="#000" stroke-width="3" stroke-linecap="round" stroke-linejoin="round"/></g><g transform="translate(60 128)"></g><g transform="translate(95 180)"><path d="M34 10c-7.2 0-14-1.2-17-2 1 2.6 6.4 8.3 17 8.3 12 0 16.5-5.5 18.3-8.3-6 1.8-11 2-18.3 2Z" stroke="#000" stroke-width="3" stroke-linecap="round" stroke-linejoin="round"/></g><g transform="translate(-1 -13)"><path d="M102.3 98.5c6.4-10 11-12.3 19.3-17M88.8 102.3c4.5-1 7.5-3 11-8M96 104.6c3.5.3 6.3-.4 10-3.2M96.6 91.4c4.6-4.3 9.6-2 15.4-7.3M160 101.4c-2.2-1.1-.5-8.8 3-12.9M164.8 92c-.2 3.2.5 10.5 4.7 14.7M169.5 92.8c.2 2 1.6 6.4 5.2 8.5M109.3 99c2.1-5.2 9.7-14 25.1-18.6M115.1 103.2c3.5-8.8 19-15.7 29.5-25.2M126.2 103.8c1.5-5 2.5-8 6.4-10.8 7.5-3.5 17-10.5 21-20M135.6 106.1c0-10.6 12.5-13.6 23.5-26.6M147.3 101.4c1.1-5.2 5.3-6.4 12.3-15.4M77 100.3c5.2-.2 11.3-2 15.5-6" stroke="#699bf7" stroke-width="3" stroke-linecap="round" stroke-linejoin="round"/></g><g transform="translate(67 152)"></g><g transform="translate(71 102)"><g stroke="#000" stroke-width="3" stroke-linecap="round" stroke-linejoin="round"><path d="M25.5 18.2c1.7-1.3 6.1-2.6 11.3-1.9 4.5.6 6.4 2.3 7.7 4.3M73 20c2-2.8 5.8-3.3 8.2-3.4 2.4-.2 5 0 7.2.6M4 20.6l13.7 8.5M48.2 33A31.5 31.5 0 0 1 68.7 31M96.9 28.8c2.5-1.3 10.6-8.8 13.1-10.6M18.1 29.7c-.3 3.7-.4 13.1 4.4 16.6 4.7 3.5 23.5-.3 25.2-1 1.7-.5 1.7-7.7-.9-14.3-2.1-5.5-20.5-3.7-28-2.3"/><path d="M70.5 28c6-2.7 22-1 25 0 3.7 1 4.1 10.3 3.8 13.7C98.9 45 78.8 45 74 44.9c-3.7-.1-4.9-11.6-4-16.5M33.4 32.3c-.4.2-1 1-.8 1.9.4 1 3.4 2.5 3.5.8.1-1.7-.4-2.3-1.2-1.6"/><path d="M81.6 31.2c-.6.6-1.7 1.8-1 2.3 1 .7 4.3 2.3 4 0-.2-1.8-1.1-1.7-1.5-1.4l-.8.8"/></g></g></g></svg>