<svg xmlns="http://www.w3.org/2000/svg" viewBox="0 0 256 256" fill="none" shape-rendering="auto" width="512" height="512"><desc>"Croodles - Doodle your face" by "vijay verma", licensed under "CC BY 4.0". / Remix of the original. - Created with dicebear.com</desc><metadata xmlns:dc="http://purl.org/dc/elements/1.1/" xmlns:cc="http://creativecommons.org/ns#" xmlns:rdf="http://www.w3.org/1999/02/22-rdf-syntax-ns#"><rdf:RDF><cc:Work><dc:title>Croodles - Doodle your face</dc:title><dc:creator><cc:Agent rdf:about="https://vijayverma.co/"><dc:title>vijay verma</dc:title></cc:Agent></dc:creator><dc:source>https://www.figma.com/community/file/966199982810283152</dc:source><cc:license rdf:resource="https://creativecommons.org/licenses/by/4.0/" /></cc:Work></rdf:RDF></metadata><mask id="viewboxMask"><rect width="256" height="256" rx="0" ry="0" x="0" y="0" fill="#fff" /></mask><g mask="url(#viewboxMask)"><rect fill="#ffdfbf" width="256" height="256" x="0" y="0" /><path d="M75 97.4a66.3 66.3 0 0 1 6-18.2c2.8-4.9 8.8-9.3 16.2-12.9a90.8 90.8 0 0 1 26.4-7.5c19-2.5 40.1.4 53.4 13.9.3 0 .5.3.7.5a38.4 38.4 0 0 1 5.5 23.8c.9 0 1.9 0 2.9.2 1.5.5 2.9 1.6 4 3.4.6 1 .8 2.4.9 3.7 0 1.4 0 2.9-.3 4.3-.6 3-1.6 6-3 8.2-2.2 3.7-4.6 4.7-6.2 5h-.2l-2.1 15c-4.2 27.3-11 49.4-19.2 64.9-4 7.7-8.5 14-13.1 18.3a26.6 26.6 0 0 1-14.4 7.9c-8.8 1.2-24.8-4.6-41.3-35.6a168.2 168.2 0 0 1-17.8-69.7 7 7 0 0 1-4.4-2.3 13.7 13.7 0 0 1-3.3-6.7c-1.4-6.7-.5-11.3 1.8-14 2-2.4 5-3 7.5-2.2Z" fill="#ffffff"/><g stroke="#000" stroke-width="3" stroke-linecap="round" stroke-linejoin="round"><path d="M182.8 98.1c2.3-.3 5-.3 6.8 2.9 1.8 3.2.1 11-2.3 15-2 3.5-4.2 4.3-5.4 4.5M74 98.7c-4.3-2-11.1 1.2-8.4 14.6 1.1 5.2 4.6 8.4 7.1 8"/><path d="M81 79.4c-14.7 29-6 82.7 10.6 114.3 16.6 31.6 32.4 36.8 40.4 35.7 18.5-2.6 37.9-36.2 46.3-92.3C184 99.5 184 83 177.1 73"/></g><g transform="translate(117 128)"><path d="M23.3 22.4c.7.8 2.6 5.5-5.6 6.5-7 .8-7.1-3.7-7.1-5.3" stroke="#000" stroke-width="3" stroke-linecap="round" stroke-linejoin="round"/></g><g transform="translate(62 148)"></g><g transform="translate(97 191)"><g stroke="#000" stroke-width="3" stroke-linecap="round" stroke-linejoin="round"><path d="M11 11.2c3 1.1 9.3 3 24.3 1.7C54 11.2 54.3 9.6 58.7 7"/><path d="M35.7 7.6A36.7 36.7 0 0 0 17 12.7c15.7 12.4 34.8 0 34.8-2.6-2.4-1-2.4-3.3-16-2.5Z"/></g></g><g transform="translate(0 -31)"><g stroke="#000000" stroke-width="3" stroke-linecap="round" stroke-linejoin="round"><path d="M86.3 99.9c-5.8-4-11-6.4-16.1-7.5M82.3 102.2C78.8 101 75.9 101 69 101M91 97.6c-4.1-4-11.6-11-13.4-13.3M93.2 94c-3-2.2-9.6-8.6-11-15.5M86.9 77.4c.5 1.9 2 7.4 6.9 13.2 2.9 3.5 5.2 5.2 7 8.1M91.5 76.2c1.1 5.2 5.2 13.3 10.4 16.2M105.3 95.8c-5.2-4-8.6-15.5-9.2-21.9M100.1 70.5c0 4 0 15 6.4 19M105.3 72.8c2 4.9 6 16.7 6 24.3M111.4 84.9a42 42 0 0 1-1.2-14.4M114.5 77.4c.4 4.2 2 13.6 5.2 17.3"/><path d="M119.2 68.7c-.8 4.6-3 17.9-.6 24.2M120.9 80.3c1 4 4 11 8.6 13.8"/><path d="M126 90c-2.8-6.9-2.1-15.6-1.7-20.7M127.2 74c0 2 1.2 8.3 5.8 16.6"/><path d="M133 68.7a44 44 0 0 0 0 22M135.9 75.6a39.3 39.3 0 0 0 4.6 22M142.2 90c1.2-9.2-1.2-14.4-2.3-19M143.4 82c3.4 5.8 4 9.8 3.4 15M145.3 78c-.6-2.2-1.4-7.3 0-11M78.8 91.2a19 19 0 0 1-7.5-4M154.2 80.7c.8-2.3 1.6-9.3 1.2-12.5M150.3 69.3a66.1 66.1 0 0 0 1.7 26.5M156.2 96c-.4-2.4-1.1-8.1 0-11.7M160 94c-.3-3.4-1.2-15.6 3-20.7M164.1 95.8V79.7M174 81.4c-2.2 1.2-8.2 7-9.9 14.4M172.2 72.8c-1.3 1.2-4 4.8-4.6 9.2M177.4 79.7c-2 3.2-5.8 11.2-5.8 16.7M182.6 83.1c-3.1 3.5-9.5 11-10.4 13.3M186 94.7s-5.7 1.7-10.4 5.7"/></g></g><g transform="translate(70 157)"></g><g transform="translate(72 80)"><g stroke="#000" stroke-linecap="round" stroke-linejoin="round"><path d="M34 27.7c7-2.6 13.2 5.2 13.2 10.9 0 6.8-5.3 12.5-10.3 12.5-5 0-9.9-5.7-9.9-12.5 0-5.7 4-9.8 7.8-11.3M77.4 23.2c6.6-2.6 11 5.4 11 11 0 6.8-3.8 12.6-8.5 12.6-4.6 0-9-4.7-9-12.2C71 27 74.5 24.4 78 23" stroke-width="3"/><path d="M40.1 40.5s0 0 0 0M82 38.2s0 0 0 0" stroke-width="6"/><path d="M28.2 19.3c2.8-3.2 10-7.9 17-1.6M66.2 15.1c4.3-4.2 14.4-10.4 20-1.8" stroke-width="3"/></g></g></g></svg>