<svg xmlns="http://www.w3.org/2000/svg" viewBox="0 0 256 256" fill="none" shape-rendering="auto" width="512" height="512"><desc>"Croodles - Doodle your face" by "vijay verma", licensed under "CC BY 4.0". / Remix of the original. - Created with dicebear.com</desc><metadata xmlns:dc="http://purl.org/dc/elements/1.1/" xmlns:cc="http://creativecommons.org/ns#" xmlns:rdf="http://www.w3.org/1999/02/22-rdf-syntax-ns#"><rdf:RDF><cc:Work><dc:title>Croodles - Doodle your face</dc:title><dc:creator><cc:Agent rdf:about="https://vijayverma.co/"><dc:title>vijay verma</dc:title></cc:Agent></dc:creator><dc:source>https://www.figma.com/community/file/966199982810283152</dc:source><cc:license rdf:resource="https://creativecommons.org/licenses/by/4.0/" /></cc:Work></rdf:RDF></metadata><mask id="viewboxMask"><rect width="256" height="256" rx="0" ry="0" x="0" y="0" fill="#fff" /></mask><g mask="url(#viewboxMask)"><rect fill="#d1d4f9" width="256" height="256" x="0" y="0" /><path d="m176 91.2.3.4c.3.1.7.4.9.7a81 81 0 0 1 8 27.7c4.7-1.6 11.8 2 11.8 10 0 4-.3 6.7-1 9-.6 2.3-1.6 4-3 5.8a9.4 9.4 0 0 1-7.7 3.3 71.7 71.7 0 0 1-26.1 49.2 51.6 51.6 0 0 1-37.2 11.4 43.6 43.6 0 0 1-30.2-18 114.1 114.1 0 0 1-19.5-42.3c-1.5.2-3.8 0-6-1.2-3-1.5-5.7-4.7-6.8-10.6-1-5.3-.4-10 1.7-13a8 8 0 0 1 4.3-3.1c1.5-.5 3.2-.5 5 0A42.2 42.2 0 0 1 96 84.3a90.3 90.3 0 0 1 26.3-7.5c19.1-2.5 40.5.5 53.7 14.4Z" fill="#ffffff"/><g stroke="#000" stroke-width="3" stroke-linecap="round" stroke-linejoin="round"><path d="M81.3 95c-17 17-15 61 11 96.5 15 20.5 42.2 25.1 66.7 6.5 34.5-26.2 30.5-83 18-106"/><path d="M186.4 121.4c3.6-1.9 10.7.8 10.7 8.7 0 7.8-1.1 10.8-3.7 14.2-2 2.6-5.6 3.2-8 2.7M69.7 121.9c-7.7-2.4-12.2 4-10.2 14.6 2.1 11.4 10.2 11.3 12.5 10.8"/></g><g transform="translate(112 123)"><path d="M24.3 5c-.8 5.3-1.2 16.3.3 22.3 3.6 14.1-1.5 17.5-3.2 17.5-5.3 0-6.5-4.7-7.7-18-1.5-16.5-1.6-16.3-3.7-21" stroke="#000" stroke-width="3" stroke-linecap="round" stroke-linejoin="round"/></g><g transform="translate(60 128)"></g><g transform="translate(95 180)"><path d="M54.7 2c-7.3 0-26-.6-38.7 2.7C16 15.4 28.6 25 39.2 22 50 19 56.2 7 54.7 2Z" stroke="#000" stroke-width="3" stroke-linecap="round" stroke-linejoin="round"/></g><g transform="translate(-1 -13)"><g stroke="#699bf7" stroke-width="3" stroke-linecap="round" stroke-linejoin="round"><path d="M158.8 105.2c5.3-4.6 7.4-13.1 3.3-23.6-2.5-6.4-5.2-7.2-9.8-15M96 110.4c-21 1.3-16.2-33.5 15.7-39.3"/><path d="M101.9 109c-13.1-10.4-2.6-39.8 37.3-46.4M168 108.4c7.2-4 17-23.5-8.5-37.3M141.1 101.9c-5.8-5.3-4.5-22.3 4.6-31.4M71.1 125.4C60.6 121 62.6 94.7 85 88.8"/><path d="M79.6 120.9c3.3-9.2-9.8-15 2.6-25.6M185 122.2c5.9 0 9.8-14.4 0-25M111.7 106.5c-9.8-2.7-7.9-26.9 19.6-37.3"/><path d="M120.9 104.5c-6.6-5.9-4.6-21 20.2-37.3"/><path d="M130.7 102.5c-5.3-3.2-6-30.7 14.4-36.6M145.7 91.4c0-5.2 2.6-6.5 2.6-14.4M148.3 101.2c4-3.2 9.2-13.7 5.3-24.2M146.4 54.8c-2.6-26.2 21.3-35 54.3-30.8 41.2 5.2 23 80.3 45.8 111"/><path d="M154.2 52.1c11.2-17.6 30.8 5.3 35.4 28.2 4.2 21.2 20.3 47.8 52.3 36.6"/><path d="M140.5 52.1c-4 1.3-6.5 7.4 3.3 10.5 10.4 3.3 16.3-2.6 14.4-5.9"/><path d="M144 44.3c-4 1.3-6.5 7.4 3.3 10.5 10.5 3.2 16.3-2.7 14.4-6M170.6 41.7c4.6-4 23.4-8.3 30.8 11 9.1 24.3 12.4 30.2 24.2 33.5"/><path d="M179.1 45.6c15 0 11.1 47.1 38.6 47.1"/><path d="M154.9 43.6c9.8-14.4 38-23.5 51.7 1.3 9.2 19.7 7.2 49 23 65.3M177.1 112.4c6-1.4 7.9-9.2 2.7-18.4"/></g></g><g transform="translate(67 152)"></g><g transform="translate(71 102)"><g stroke="#000" stroke-width="3" stroke-linecap="round" stroke-linejoin="round"><path d="M20.8 12.3c1.7-1.3 6.2-2.6 11.3-2 4.5.7 6.4 2.3 7.7 4.3M72.9 14.2c2-3 5.7-3.7 8-4 2.4-.2 5.1-.2 7.3.4M4 21.2l13.7 6.5M48.2 31.5a31.5 31.5 0 0 1 20.5-1.8M96.9 27.3a193 193 0 0 0 13.1-8.6M24.6 49.9c-5-3.1-10.5-15.7-5.9-22.7 5.3-7.8 23.8-8.7 28.1 2.4 2.6 6.5 1.6 12.7 1 14.3-1.9 4.5-10.3 13.9-23.2 6ZM95.5 26.5c-5.6-8-21-8.3-25.4.4-1.9 3.7-3 14.2 4.4 20.2 3.8 3 18 8.2 22.8-5.2 2.2-6.3.4-12.2-1.8-15.4Z"/><path d="M34.4 29.8c-.4.2-1.1 1-.8 1.8.4 1.2 3.4 2.5 3.5.9.1-1.7-.5-2.3-1.2-1.6M81 27.7c-.6.5-1.7 1.8-1 2.3 1 .6 4.2 2.3 4 0-.3-1.9-1.1-1.7-1.5-1.4l-.9.7"/></g></g></g></svg>