<svg xmlns="http://www.w3.org/2000/svg" viewBox="0 0 256 256" fill="none" shape-rendering="auto" width="512" height="512"><desc>"Croodles - Doodle your face" by "vijay verma", licensed under "CC BY 4.0". / Remix of the original. - Created with dicebear.com</desc><metadata xmlns:dc="http://purl.org/dc/elements/1.1/" xmlns:cc="http://creativecommons.org/ns#" xmlns:rdf="http://www.w3.org/1999/02/22-rdf-syntax-ns#"><rdf:RDF><cc:Work><dc:title>Croodles - Doodle your face</dc:title><dc:creator><cc:Agent rdf:about="https://vijayverma.co/"><dc:title>vijay verma</dc:title></cc:Agent></dc:creator><dc:source>https://www.figma.com/community/file/966199982810283152</dc:source><cc:license rdf:resource="https://creativecommons.org/licenses/by/4.0/" /></cc:Work></rdf:RDF></metadata><mask id="viewboxMask"><rect width="256" height="256" rx="0" ry="0" x="0" y="0" fill="#fff" /></mask><g mask="url(#viewboxMask)"><rect fill="#d1d4f9" width="256" height="256" x="0" y="0" /><path d="M73.9 102a57.1 57.1 0 0 1 5-14.8c2.8-4.9 8.7-9.3 16.2-12.8a89.7 89.7 0 0 1 26.2-7.6c19-2.5 40.4.5 53.6 14.5.3.3.4.7.3 1.2 2.1 4 4.3 9.8 6.3 16.8 1.3-.5 3-.9 4.6-.7 2 0 4 .9 5.2 3 2 3.6 2.2 9.1.7 15.4a7.4 7.4 0 0 1-3 4.7c-.9.5-1.7.8-2.5 1 1.2 7.8 2.1 16 2.5 24.3.5 13.2-.3 26.3-3.3 37.3-3 11-8.4 20-17 24.7a78.6 78.6 0 0 1-56 8 51 51 0 0 1-37.2-31.5 161.1 161.1 0 0 1-5.1-49.6 246 246 0 0 1 .3-8.4 4.9 4.9 0 0 1-4.9-2.1 17.4 17.4 0 0 1-2.6-8.2c-.7-5.7.2-10 2.3-12.8a7 7 0 0 1 4-2.7c1.4-.4 3-.2 4.4.3Z" fill="#ffffff"/><g stroke="#000" stroke-width="3" stroke-linecap="round" stroke-linejoin="round"><path d="M79 87.3c-10.5 19.4-10.9 77.8-3.3 99 11.5 32.3 56.4 43.4 93.3 23.3 33.3-18.1 18-105 6.1-127.6"/><path d="M183 100.2c2.5-1.1 6.8-1.7 8.6 1.5 1.9 3.2 2 8.4.6 14.7-1 4-3.8 4.8-5.7 4.8M72.7 103c-6-2.6-10.8 2.6-9.5 13.7 1 7.8 3.4 9.6 6 9.3"/></g><g transform="translate(115 126)"><path d="M24.3 5c-.8 5.3-1.2 16.3.3 22.3 3.6 14.1-1.5 17.5-3.2 17.5-5.3 0-6.5-4.7-7.7-18-1.5-16.5-1.6-16.3-3.7-21" stroke="#000" stroke-width="3" stroke-linecap="round" stroke-linejoin="round"/></g><g transform="translate(61 138)"></g><g transform="translate(98 188)"><path d="M4 14.8s5.7-2.8 7.1-7.6M12.2 9c.2.8-7 9.3-7 9.3M14.2 8.6C13.7 12.7 9 18.9 9 18.9M11.6 20s5.3-4.8 5.8-10.3M19.6 9.4c0 3.5-1.7 11.2-1.7 11.2M45.6 7.7V20M18.7 20.2s4.2-5.3 4.2-9.6M49.2 18.2s-3-6.2-3-10.6M25.3 10.2c.3 2.4-2.9 9.8-2.9 9.8M55.5 6.9c.3 2.3 5.4 8.3 5.4 8.3M49.2 8a50 50 0 0 0 4.8 9.8M27.7 10c-.6 4-1.3 10.7-1.3 10.7M50.8 7.3l6.4 9.2M30 9.9c.6 2.8.8 8.6 3.7 10.6M58.5 7.3c1.5 2.3 4.4 5.9 8.2 6.8M34 9c0 1.3-1.8 5.9 1 11M40 20.5S35 14.3 35 9M37.5 8.6c0 3.8 6.1 12 6.1 12M44.5 20c-.6-2-3.8-9.3-3.4-12.5" stroke="#000" stroke-width="3" stroke-linecap="round" stroke-linejoin="round"/></g><g transform="translate(-2 -23)"><g stroke="#f24e1e" stroke-width="3" stroke-linecap="round" stroke-linejoin="round"><path d="M133.6 74.5c-6.4 8-18.5 10.4-26 11.5-13 2-19.5 9.3-25 27.3-7.6 25-3.2 46.5-5.4 65.4-2.7 22.6 4 27.2 5.4 28.4"/><path d="M134.2 69.2c-4.9 7-17.9 9-33.6 12.2-19.7 4-32.7 33-31 73 1.4 32 .6 48.4 0 52.7"/><path d="M58.9 195.5c5.2-7.6 4.5-22.4 3.5-33.6-3.5-37 5.2-64.3 17.3-77.6 15.4-16.8 40-8.1 53.9-19.1"/><path d="M131.9 61.7c-8.7-5.8-25.4-2-34.2 1.2-11 4-35.2 20-38.8 56.7-4 41.8-14.2 71.6 0 84.8"/><path d="M47.9 216.9c4.6-12.7-2.9-23.2-2.9-46.3 0-19.8 9.5-65.4 16.5-78.8C69 77.4 71.8 70 85.5 61.1c16.2-10.4 39.9-15.7 49.1-1.2M137.7 58.8c16.2-15 31.4-2 41.6 10.4 12.8 15.7 16.6 20.9 20 53.9 3.5 33 2 36.8 3 46.9 1 13.1 6 17.8 14.7 24.8"/><path d="M137.6 66.4c9.9 9.8 15.8 5 25.8 9.6 15.4 7 20.9 16.8 23.8 31.9 2.9 15-2.3 48.6 0 59.6 1.8 8.8 5 17.1 16.2 20.2"/><path d="M137.6 62.3c12.7-3 16-2.4 26 1.7 12.8 5.2 29.4 26 28.8 56.2-.6 30.1-4.6 54.4 13.3 73.5"/><path d="M137 70.4c1.2 4.1 5.4 8.8 16.8 11.7 22.8 5.7 27.6 28.3 28.8 49.1 1.1 20.8-4.5 38.8 3 54.5 6 12 14.2 16.6 20.8 16.6"/><path d="M136.5 75.6c1.7 11.6 13.9 13.3 29 22.6 15 9.3 14.6 33.3 11.6 58.2-2.5 21.2 3 35.8 18.7 35.8"/></g></g><g transform="translate(71 156)"></g><g transform="translate(70 84)"><path d="M30.2 23.6c2.6 1.8 7.7 6 8.2 7.8.4 2-8.8 5.3-13.4 6.8M89.4 22c-3.6 1.3-10.5 4.3-9.7 6 1 2.1 6.9 3.7 9.7 5.8" stroke="#000" stroke-width="3" stroke-linecap="round" stroke-linejoin="round"/></g></g></svg>