<svg xmlns="http://www.w3.org/2000/svg" viewBox="0 0 256 256" fill="none" shape-rendering="auto" width="512" height="512"><desc>"Croodles - Doodle your face" by "vijay verma", licensed under "CC BY 4.0". / Remix of the original. - Created with dicebear.com</desc><metadata xmlns:dc="http://purl.org/dc/elements/1.1/" xmlns:cc="http://creativecommons.org/ns#" xmlns:rdf="http://www.w3.org/1999/02/22-rdf-syntax-ns#"><rdf:RDF><cc:Work><dc:title>Croodles - Doodle your face</dc:title><dc:creator><cc:Agent rdf:about="https://vijayverma.co/"><dc:title>vijay verma</dc:title></cc:Agent></dc:creator><dc:source>https://www.figma.com/community/file/966199982810283152</dc:source><cc:license rdf:resource="https://creativecommons.org/licenses/by/4.0/" /></cc:Work></rdf:RDF></metadata><mask id="viewboxMask"><rect width="256" height="256" rx="0" ry="0" x="0" y="0" fill="#fff" /></mask><g mask="url(#viewboxMask)"><rect fill="#d1d4f9" width="256" height="256" x="0" y="0" /><path d="M75 97.4a66.3 66.3 0 0 1 6-18.2c2.8-4.9 8.8-9.3 16.2-12.9a90.8 90.8 0 0 1 26.4-7.5c19-2.5 40.1.4 53.4 13.9.3 0 .5.3.7.5a38.4 38.4 0 0 1 5.5 23.8c.9 0 1.9 0 2.9.2 1.5.5 2.9 1.6 4 3.4.6 1 .8 2.4.9 3.7 0 1.4 0 2.9-.3 4.3-.6 3-1.6 6-3 8.2-2.2 3.7-4.6 4.7-6.2 5h-.2l-2.1 15c-4.2 27.3-11 49.4-19.2 64.9-4 7.7-8.5 14-13.1 18.3a26.6 26.6 0 0 1-14.4 7.9c-8.8 1.2-24.8-4.6-41.3-35.6a168.2 168.2 0 0 1-17.8-69.7 7 7 0 0 1-4.4-2.3 13.7 13.7 0 0 1-3.3-6.7c-1.4-6.7-.5-11.3 1.8-14 2-2.4 5-3 7.5-2.2Z" fill="#ffffff"/><g stroke="#000" stroke-width="3" stroke-linecap="round" stroke-linejoin="round"><path d="M182.8 98.1c2.3-.3 5-.3 6.8 2.9 1.8 3.2.1 11-2.3 15-2 3.5-4.2 4.3-5.4 4.5M74 98.7c-4.3-2-11.1 1.2-8.4 14.6 1.1 5.2 4.6 8.4 7.1 8"/><path d="M81 79.4c-14.7 29-6 82.7 10.6 114.3 16.6 31.6 32.4 36.8 40.4 35.7 18.5-2.6 37.9-36.2 46.3-92.3C184 99.5 184 83 177.1 73"/></g><g transform="translate(117 128)"><path d="M15.3 18c-4 .9-7.2 6.8-4 10 4 4 12.3 4.7 13.1 0 .7-3.9-1.3-6-2.7-6.7" stroke="#000" stroke-width="3" stroke-linecap="round" stroke-linejoin="round"/></g><g transform="translate(62 148)"></g><g transform="translate(97 191)"><g stroke="#000" stroke-width="3" stroke-linecap="round" stroke-linejoin="round"><path d="M54.3 13.7c4.9-9.4-1.4-10-6.6-7.4a48.9 48.9 0 0 1-23.5 2.4C17.8 6.3 14.4 2 14 13c-.4 11 36.2 8.6 40.3.8Z"/><path d="M15.2 11.9c8 2.7 27 5.8 39.2-4M24 11l-1 5.6M30.8 12.4l-.5 6.2M37.4 11.7l1 6.4M45.3 9.8l1.4 7"/></g></g><g transform="translate(0 -31)"><g stroke="#699bf7" stroke-width="3" stroke-linecap="round" stroke-linejoin="round"><path d="M116.5 77c11.4-6.3 49-9 61 29.4 18 58.5 31.5 61.8 38.3 66.5"/><path d="M185 144c5.4 32.3-.3 71.4 1.3 85.3 2 17.5 5.4 22.2 14.8 28.3"/><path d="M169.5 76c17.5 18 12.5 37 8 117.5-2 34.9 16 48.3 20.6 50.5"/><path d="M117.6 76.8c8.1-7.3 34.4-15.3 53.4 0 17.7 14.4 21.8 33.6 22.6 81.4.5 33.8 4.7 43.2 6.7 43.6M115.6 77.5A71.7 71.7 0 0 0 78 142.7c0 33 4 82-13.4 104.2"/><path d="M114.7 76a56 56 0 0 0-42.3 51.7c-3.4 31.6 2 76-9.4 102.9"/><path d="M46.4 241.5c-.2-10.3.3-33.8 4-45 4.7-14.2 3.5-88.7 32.3-111 17.5-13.4 33-12.7 36.3-10M119 74.8c3.3-8 20.3-18 44.3-9.4 30.3 10.8 48.4 39.8 43.7 76.1-4.5 34.6-19.7 79.4-1 108"/><path d="M117.6 72.8c2.7-8.3 13.2-23.4 33.6-17.5 25.6 7.4 49.8 31.6 53.1 95.5 3.4 63.8-10 86 24.2 114.9M116.3 72.1c-10.8-7.4-38.3 2-57.1 37.7C39.9 146.2 43.7 217.3 37 234"/><path d="M119 74.2c-2.7-7-12.4-19-29.6-11.5-21.5 9.4-37 24.9-47 84.7-10.1 59.8 6 74.6-2 102.8M120 80.5a67 67 0 0 0 2.8 21.9M125 79c1.5 5.5 4.5 18.5 9.5 23M131.5 78c4.5 8.5 10.2 18.9 12.3 23.7M142.5 78c7.5 3 15.5 10.5 20 17.5M137 78c5 3 10.3 13.2 16.3 19.7M115 85c-.3 3.5-1.8 11.7-6 16"/><path d="M99.5 97c2-1.3 5.5-6 11-12.5M60.5 171.6c.5 11.6-1.6 36.7-2.7 46.4-1.3 12-6 23.5-10.7 30.2"/></g></g><g transform="translate(70 157)"></g><g transform="translate(72 80)"><g stroke="#000" stroke-width="3" stroke-linecap="round" stroke-linejoin="round"><path d="M26.8 19.1c1.3 1.2 4.7 2.4 8.6 1.7 3.5-.5 5-2 6-3.9M70 16.1c2 2.6 5.4 3.4 7.6 3.6 2.2 0 5-.8 7.2-2M4 20.5 17.7 29M48.2 32.8A31.5 31.5 0 0 1 68.7 31M96.9 28.7c2.5-1.4 10.6-7.8 13.1-9.7"/><path d="M22.6 46c-8.3-3.1-7.6-11.4-3.7-17.2 3-3.8 22.8-2.2 27.2 1.8 4.2 3.8 2.3 11.8-1.8 14.3-3.4 2-16.2 3.1-21.7 1ZM94.4 26.7c-3.6-1.2-18.2-1-24 2.6-3.8 2.5-6.5 14.7 3.6 16 4.6.7 14.9 0 18.7-1.8 8.2-3.9 6.8-15.2 1.7-16.8Z"/><path d="M29.7 35.3c1-2 3.2-2.6 4.1-2.6 3.1 0 4 1.3 4.7 2.1M78 35.3c1-2 3.1-2.6 4-2.6 3.2 0 4 1.3 4.7 2.1"/></g></g></g></svg>