<svg xmlns="http://www.w3.org/2000/svg" viewBox="0 0 256 256" fill="none" shape-rendering="auto" width="512" height="512"><desc>"Croodles - Doodle your face" by "vijay verma", licensed under "CC BY 4.0". / Remix of the original. - Created with dicebear.com</desc><metadata xmlns:dc="http://purl.org/dc/elements/1.1/" xmlns:cc="http://creativecommons.org/ns#" xmlns:rdf="http://www.w3.org/1999/02/22-rdf-syntax-ns#"><rdf:RDF><cc:Work><dc:title>Croodles - Doodle your face</dc:title><dc:creator><cc:Agent rdf:about="https://vijayverma.co/"><dc:title>vijay verma</dc:title></cc:Agent></dc:creator><dc:source>https://www.figma.com/community/file/966199982810283152</dc:source><cc:license rdf:resource="https://creativecommons.org/licenses/by/4.0/" /></cc:Work></rdf:RDF></metadata><mask id="viewboxMask"><rect width="256" height="256" rx="0" ry="0" x="0" y="0" fill="#fff" /></mask><g mask="url(#viewboxMask)"><rect fill="#d1d4f9" width="256" height="256" x="0" y="0" /><path d="M73.9 102a57.1 57.1 0 0 1 5-14.8c2.8-4.9 8.7-9.3 16.2-12.8a89.7 89.7 0 0 1 26.2-7.6c19-2.5 40.4.5 53.6 14.5.3.3.4.7.3 1.2 2.1 4 4.3 9.8 6.3 16.8 1.3-.5 3-.9 4.6-.7 2 0 4 .9 5.2 3 2 3.6 2.2 9.1.7 15.4a7.4 7.4 0 0 1-3 4.7c-.9.5-1.7.8-2.5 1 1.2 7.8 2.1 16 2.5 24.3.5 13.2-.3 26.3-3.3 37.3-3 11-8.4 20-17 24.7a78.6 78.6 0 0 1-56 8 51 51 0 0 1-37.2-31.5 161.1 161.1 0 0 1-5.1-49.6 246 246 0 0 1 .3-8.4 4.9 4.9 0 0 1-4.9-2.1 17.4 17.4 0 0 1-2.6-8.2c-.7-5.7.2-10 2.3-12.8a7 7 0 0 1 4-2.7c1.4-.4 3-.2 4.4.3Z" fill="#ffffff"/><g stroke="#000" stroke-width="3" stroke-linecap="round" stroke-linejoin="round"><path d="M79 87.3c-10.5 19.4-10.9 77.8-3.3 99 11.5 32.3 56.4 43.4 93.3 23.3 33.3-18.1 18-105 6.1-127.6"/><path d="M183 100.2c2.5-1.1 6.8-1.7 8.6 1.5 1.9 3.2 2 8.4.6 14.7-1 4-3.8 4.8-5.7 4.8M72.7 103c-6-2.6-10.8 2.6-9.5 13.7 1 7.8 3.4 9.6 6 9.3"/></g><g transform="translate(115 126)"><path d="M23.3 22.4c.7.8 2.6 5.5-5.6 6.5-7 .8-7.1-3.7-7.1-5.3" stroke="#000" stroke-width="3" stroke-linecap="round" stroke-linejoin="round"/></g><g transform="translate(61 138)"><path d="M63.1 81.2c-1 6.7-4.5 9-4.5 9M77.2 83.3c-.4 4.2 1.3 9 1.3 9M65.4 81.5c.2 4.8-2.1 10.5-2.1 10.5M73.2 82l2.6 9.5M60.5 81.9c-.6 2.1-4.7 5.6-4.7 5.6M58.5 82c-1 2-5.5 5-5.5 5M81.4 81c.8 2.5 5.3 6.4 5.3 6.4M68.2 82.9c1 5.3-1 10-1.3 12M71.8 93.8s-1.2-6.2-1.5-10.5M78.4 81a19 19 0 0 0 5.9 10.7" stroke="#000" stroke-width="3" stroke-linecap="round" stroke-linejoin="round"/></g><g transform="translate(98 188)"><path d="M43.8 10.4c-8 1.5-20.5 1-22.4 2.4-3.4 3.7 16.2 1.3 20.5.8 8.8-1 11.7-4.9 2-3.2Z" stroke="#000" stroke-width="3" stroke-linecap="round" stroke-linejoin="round"/></g><g transform="translate(-2 -23)"><g stroke="#f24e1e" stroke-width="3" stroke-linecap="round" stroke-linejoin="round"><path d="M81 106.1c11-18.5 70-33.3 96-5.8"/><path d="M81.3 106.5c22.1 16.9 56.8-10.4 61.2-18.7 0 18.1 19.2 24 34.5 12.9"/><path d="M130 91.6c-4 2.9-21.3 13.3-35.6 12.4M104.1 95.3c4-.5 13.1-2.2 18.1-4.4M147.4 91c1.1 2.5 5.5 8 13.7 8.5"/></g></g><g transform="translate(71 156)"></g><g transform="translate(70 84)"><g stroke="#000" stroke-width="3" stroke-linecap="round" stroke-linejoin="round"><path d="M26.8 19.1c1.3 1.2 4.7 2.4 8.6 1.7 3.5-.5 5-2 6-3.9M70 16.1c2 2.6 5.4 3.4 7.6 3.6 2.2 0 5-.8 7.2-2M4 20.5 17.7 29M48.2 32.8A31.5 31.5 0 0 1 68.7 31M96.9 28.7c2.5-1.4 10.6-7.8 13.1-9.7"/><path d="M22.6 46c-8.3-3.1-7.6-11.4-3.7-17.2 3-3.8 22.8-2.2 27.2 1.8 4.2 3.8 2.3 11.8-1.8 14.3-3.4 2-16.2 3.1-21.7 1ZM94.4 26.7c-3.6-1.2-18.2-1-24 2.6-3.8 2.5-6.5 14.7 3.6 16 4.6.7 14.9 0 18.7-1.8 8.2-3.9 6.8-15.2 1.7-16.8Z"/><path d="M29.7 35.3c1-2 3.2-2.6 4.1-2.6 3.1 0 4 1.3 4.7 2.1M78 35.3c1-2 3.1-2.6 4-2.6 3.2 0 4 1.3 4.7 2.1"/></g></g></g></svg>