<svg xmlns="http://www.w3.org/2000/svg" viewBox="0 0 256 256" fill="none" shape-rendering="auto" width="512" height="512"><desc>"Croodles - Doodle your face" by "vijay verma", licensed under "CC BY 4.0". / Remix of the original. - Created with dicebear.com</desc><metadata xmlns:dc="http://purl.org/dc/elements/1.1/" xmlns:cc="http://creativecommons.org/ns#" xmlns:rdf="http://www.w3.org/1999/02/22-rdf-syntax-ns#"><rdf:RDF><cc:Work><dc:title>Croodles - Doodle your face</dc:title><dc:creator><cc:Agent rdf:about="https://vijayverma.co/"><dc:title>vijay verma</dc:title></cc:Agent></dc:creator><dc:source>https://www.figma.com/community/file/966199982810283152</dc:source><cc:license rdf:resource="https://creativecommons.org/licenses/by/4.0/" /></cc:Work></rdf:RDF></metadata><mask id="viewboxMask"><rect width="256" height="256" rx="0" ry="0" x="0" y="0" fill="#fff" /></mask><g mask="url(#viewboxMask)"><rect fill="#ffdfbf" width="256" height="256" x="0" y="0" /><path d="M175 107.8c.3.4.5.8.4 1.3 1.9 2.3 3.5 5 4.8 8 1.2-.4 2.5-.7 3.9-.6 1.7.2 3.3 1.1 4.4 3 2 3.5 3.4 8 1.8 14.6a7.9 7.9 0 0 1-2.7 4.6 6 6 0 0 1-2.4 1 54 54 0 0 1-1.6 15 55 55 0 0 1-46 38.4c-24 2.2-47.9-4.1-59.6-27a43 43 0 0 1-5.7-17.5c-1.4 0-2.9-.6-4.1-2a15.5 15.5 0 0 1-3-8.3c-.7-5.7.2-9.9 2-12.4 1-1.3 2.2-2.2 3.6-2.6 1.2-.4 2.6-.3 3.8.2a33.1 33.1 0 0 1 4-9l.3-.7c2.9-4.9 8.8-9.4 16.2-13a89.6 89.6 0 0 1 26.3-7.5c19-2.5 40.4.5 53.6 14.5Z" fill="#ffffff"/><g stroke="#000" stroke-width="3" stroke-linecap="round" stroke-linejoin="round"><path d="M78.7 115c-6.1 8.7-10.8 34.3-.6 51 11.6 22.5 35.3 28.9 59.6 26.6a54.7 54.7 0 0 0 45.7-38A56 56 0 0 0 175 109"/><path d="M181.2 118.4c2.6-1.2 5.6-1.7 7.4 1.5 1.9 3.2 3.2 7.3 1.7 13.6-1 4-3.3 4.9-5.3 4.9M73 124.6c-4.2-2-9.1 2.3-7.8 13.4 1 7.8 4 9.5 6.5 9.2"/></g><g transform="translate(113 126)"><path d="M23.3 22.4c.7.8 2.6 5.5-5.6 6.5-7 .8-7.1-3.7-7.1-5.3" stroke="#000" stroke-width="3" stroke-linecap="round" stroke-linejoin="round"/></g><g transform="translate(62 112)"></g><g transform="translate(98 169)"><path d="M34 10c-7.2 0-14-1.2-17-2 1 2.6 6.4 8.3 17 8.3 12 0 16.5-5.5 18.3-8.3-6 1.8-11 2-18.3 2Z" stroke="#000" stroke-width="3" stroke-linecap="round" stroke-linejoin="round"/></g><g transform="translate(-2 4)"><g stroke="#f24e1e" stroke-linecap="round" stroke-linejoin="round"><path d="m82 98 7.5 9.3L82 91l12.5 17.8L83.3 84l19.4 26.2L95.9 91c5.7 8.3 17 24.1 16 21.3-.9-2.8-5.6-12.8-8-17.5l17.5 19L115 96l13.8 16.3-2.5-13 10 11-2.3-15.5 10 15.5-5-18.2 13.2 16.7-4.5-19.2 12 17.7-5.4-19.6 10.9 18.3-5.5-19.7 11 18-5.5-20.2 11 18-5.5-20" stroke-width="6"/><path d="M54 65.6C77 54.4 125 32 134.3 32c9.4 0 51.6 15.6 71.6 23.4L124 99.2 57.8 63.7" stroke-width="3"/><path d="m195.8 57.1-4.2-5.2-3.2 11-3.1-13.8-5.8 18.5-2-21.7-6.6 27.5a110 110 0 0 0 0-29.6c-2.4-8.2-3.5 30.8-5.9 23.8-1.8-5.6-3-22-3.8-27.3v36L154 39v41.2l-5.5-43-3.2 46-5.5-47.8-3.9 56.1-4-56.1-2.3 59.5-6.3-57.7-2.4 57.7-4.6-55.9-5.3 52.5-2.6-49.7-4.9 45-3.4-40.9-3.6 37.3-2-34-5.4 31L87.5 52c-1 7.8-3.6 23.7-5.2 24.4-2 1-1.7-11.8-1.3-20 .3-6.7-3 5.7-5.4 13.6l-3-11-2.4 8.7L66 63" stroke-width="6"/><path d="M79.1 76.5V104c0 3.2 34.6 12.1 42.4 12.1 6.3 0 40.3-8 56.6-12.1V71.7M55.8 67 50 108.5M56.3 66.4v40M57 66.4l3.5 38" stroke-width="3"/></g></g><g transform="translate(69 153)"></g><g transform="translate(72 106)"><path d="M26.7 26.3c1-2.5 4.2-7.3 9.9-7.1 5.7.2 8.3 3.4 8.9 5M71.2 24.6c1-2.9 4.2-8.4 9.2-7.7 5 .6 7.5 4.3 8.1 6M25 43c2.7-4 9.5-6.7 15-6.2 6.7.6 4.3 6.6 2.6 7.3-2.2.9-5.2-.9-3.3-3.3 1.4-2 2.8 0 2.4.8M72.6 38.6c1.7-1.7 6.5-5.2 11.4-5 6.1.4 7.8 3.4 6 5.5-2 2.2-4.6 2.5-4.6 0 0-2.4 2-2.5 2.8-1" stroke="#000" stroke-width="3" stroke-linecap="round" stroke-linejoin="round"/></g></g></svg>